<svg height="1998" width="720" xmlns="http://www.w3.org/2000/svg">
<rect height="1998" fill="#555" width="720"></rect>
<text fill="#7f7" font-family="Courier New" font-size="12" xml:space="preserve">
<tspan x="10" y="26">npm install - 51 megabytes</tspan>

<tspan x="10" y="42"></tspan>

<tspan x="10" y="58">node_modules</tspan>

<tspan x="10" y="74">└─┬ npm@6.1.0</tspan>

<tspan x="10" y="90">  ├── abbrev@1.1.1 extraneous</tspan>

<tspan x="10" y="106">  ├── ansi-regex@3.0.0 extraneous</tspan>

<tspan x="10" y="122">  ├── ansicolors@0.3.2 extraneous</tspan>

<tspan x="10" y="138">  ├── ansistyles@0.1.3 extraneous</tspan>

<tspan x="10" y="154">  ├── aproba@1.2.0 extraneous</tspan>

<tspan x="10" y="170">  ├── archy@1.0.0 extraneous</tspan>

<tspan x="10" y="186">  ├── bin-links@1.1.2 extraneous</tspan>

<tspan x="10" y="202">  ├── bluebird@3.5.1 extraneous</tspan>

<tspan x="10" y="218">  ├── byte-size@4.0.3 extraneous</tspan>

<tspan x="10" y="234">  ├── cacache@11.0.2 extraneous</tspan>

<tspan x="10" y="250">  ├── call-limit@1.1.0 extraneous</tspan>

<tspan x="10" y="266">  ├── chownr@1.0.1 extraneous</tspan>

<tspan x="10" y="282">  ├── cli-columns@3.1.2 extraneous</tspan>

<tspan x="10" y="298">  ├── cli-table2@0.2.0 extraneous</tspan>

<tspan x="10" y="314">  ├── cmd-shim@2.0.2 extraneous</tspan>

<tspan x="10" y="330">  ├── columnify@1.5.4 extraneous</tspan>

<tspan x="10" y="346">  ├── config-chain@1.1.11 extraneous</tspan>

<tspan x="10" y="362">  ├── debuglog@1.0.1 extraneous</tspan>

<tspan x="10" y="378">  ├── detect-indent@5.0.0 extraneous</tspan>

<tspan x="10" y="394">  ├── detect-newline@2.1.0 extraneous</tspan>

<tspan x="10" y="410">  ├── dezalgo@1.0.3 extraneous</tspan>

<tspan x="10" y="426">  ├── editor@1.0.0 extraneous</tspan>

<tspan x="10" y="442">  ├── figgy-pudding@3.1.0 extraneous</tspan>

<tspan x="10" y="458">  ├── find-npm-prefix@1.0.2 extraneous</tspan>

<tspan x="10" y="474">  ├── fs-vacuum@1.2.10 extraneous</tspan>

<tspan x="10" y="490">  ├── fs-write-stream-atomic@1.0.10 extraneous</tspan>

<tspan x="10" y="506">  ├── gentle-fs@2.0.1 extraneous</tspan>

<tspan x="10" y="522">  ├── glob@7.1.2 extraneous</tspan>

<tspan x="10" y="538">  ├── graceful-fs@4.1.11 extraneous</tspan>

<tspan x="10" y="554">  ├── has-unicode@2.0.1 extraneous</tspan>

<tspan x="10" y="570">  ├── hosted-git-info@2.6.0 extraneous</tspan>

<tspan x="10" y="586">  ├── iferr@1.0.0 extraneous</tspan>

<tspan x="10" y="602">  ├── imurmurhash@0.1.4 extraneous</tspan>

<tspan x="10" y="618">  ├── inflight@1.0.6 extraneous</tspan>

<tspan x="10" y="634">  ├── inherits@2.0.3 extraneous</tspan>

<tspan x="10" y="650">  ├── ini@1.3.5 extraneous</tspan>

<tspan x="10" y="666">  ├── init-package-json@1.10.3 extraneous</tspan>

<tspan x="10" y="682">  ├── is-cidr@2.0.5 extraneous</tspan>

<tspan x="10" y="698">  ├── json-parse-better-errors@1.0.2 extraneous</tspan>

<tspan x="10" y="714">  ├── JSONStream@1.3.2 extraneous</tspan>

<tspan x="10" y="730">  ├── lazy-property@1.0.0 extraneous</tspan>

<tspan x="10" y="746">  ├── libcipm@1.6.2 extraneous</tspan>

<tspan x="10" y="762">  ├── libnpmhook@4.0.1 extraneous</tspan>

<tspan x="10" y="778">  ├── libnpx@10.2.0 extraneous</tspan>

<tspan x="10" y="794">  ├── lock-verify@2.0.2 extraneous</tspan>

<tspan x="10" y="810">  ├── lockfile@1.0.4 extraneous</tspan>

<tspan x="10" y="826">  ├── lodash._baseindexof@3.1.0 extraneous</tspan>

<tspan x="10" y="842">  ├── lodash._baseuniq@4.6.0 extraneous</tspan>

<tspan x="10" y="858">  ├── lodash._bindcallback@3.0.1 extraneous</tspan>

<tspan x="10" y="874">  ├── lodash._cacheindexof@3.0.2 extraneous</tspan>

<tspan x="10" y="890">  ├── lodash._createcache@3.1.2 extraneous</tspan>

<tspan x="10" y="906">  ├── lodash._getnative@3.9.1 extraneous</tspan>

<tspan x="10" y="922">  ├── lodash.clonedeep@4.5.0 extraneous</tspan>

<tspan x="10" y="938">  ├── lodash.restparam@3.6.1 extraneous</tspan>

<tspan x="10" y="954">  ├── lodash.union@4.6.0 extraneous</tspan>

<tspan x="10" y="970">  ├── lodash.uniq@4.5.0 extraneous</tspan>

<tspan x="10" y="986">  ├── lodash.without@4.4.0 extraneous</tspan>

<tspan x="10" y="1002">  ├── lru-cache@4.1.3 extraneous</tspan>

<tspan x="10" y="1018">  ├── meant@1.0.1 extraneous</tspan>

<tspan x="10" y="1034">  ├── mississippi@3.0.0 extraneous</tspan>

<tspan x="10" y="1050">  ├── mkdirp@0.5.1 extraneous</tspan>

<tspan x="10" y="1066">  ├── move-concurrently@1.0.1 extraneous</tspan>

<tspan x="10" y="1082">  ├── node-gyp@3.6.2 extraneous</tspan>

<tspan x="10" y="1098">  ├── nopt@4.0.1 extraneous</tspan>

<tspan x="10" y="1114">  ├── normalize-package-data@2.4.0 extraneous</tspan>

<tspan x="10" y="1130">  ├── npm-audit-report@1.2.1 extraneous</tspan>

<tspan x="10" y="1146">  ├── npm-cache-filename@1.0.2 extraneous</tspan>

<tspan x="10" y="1162">  ├── npm-install-checks@3.0.0 extraneous</tspan>

<tspan x="10" y="1178">  ├── npm-lifecycle@2.0.3 extraneous</tspan>

<tspan x="10" y="1194">  ├── npm-package-arg@6.1.0 extraneous</tspan>

<tspan x="10" y="1210">  ├── npm-packlist@1.1.10 extraneous</tspan>

<tspan x="10" y="1226">  ├── npm-pick-manifest@2.1.0 extraneous</tspan>

<tspan x="10" y="1242">  ├── npm-profile@3.0.1 extraneous</tspan>

<tspan x="10" y="1258">  ├── npm-registry-client@8.5.1 extraneous</tspan>

<tspan x="10" y="1274">  ├── npm-registry-fetch@1.1.0 extraneous</tspan>

<tspan x="10" y="1290">  ├── npm-user-validate@1.0.0 extraneous</tspan>

<tspan x="10" y="1306">  ├── npmlog@4.1.2 extraneous</tspan>

<tspan x="10" y="1322">  ├── once@1.4.0 extraneous</tspan>

<tspan x="10" y="1338">  ├── opener@1.4.3 extraneous</tspan>

<tspan x="10" y="1354">  ├── osenv@0.1.5 extraneous</tspan>

<tspan x="10" y="1370">  ├── pacote@8.1.5 extraneous</tspan>

<tspan x="10" y="1386">  ├── path-is-inside@1.0.2 extraneous</tspan>

<tspan x="10" y="1402">  ├── promise-inflight@1.0.1 extraneous</tspan>

<tspan x="10" y="1418">  ├── qrcode-terminal@0.12.0 extraneous</tspan>

<tspan x="10" y="1434">  ├── query-string@6.1.0 extraneous</tspan>

<tspan x="10" y="1450">  ├── qw@1.0.1 extraneous</tspan>

<tspan x="10" y="1466">  ├── read@1.0.7 extraneous</tspan>

<tspan x="10" y="1482">  ├── read-cmd-shim@1.0.1 extraneous</tspan>

<tspan x="10" y="1498">  ├── read-installed@4.0.3 extraneous</tspan>

<tspan x="10" y="1514">  ├── read-package-json@2.0.13 extraneous</tspan>

<tspan x="10" y="1530">  ├── read-package-tree@5.2.1 extraneous</tspan>

<tspan x="10" y="1546">  ├── readable-stream@2.3.6 extraneous</tspan>

<tspan x="10" y="1562">  ├── readdir-scoped-modules@1.0.2 extraneous</tspan>

<tspan x="10" y="1578">  ├── request@2.86.0 extraneous</tspan>

<tspan x="10" y="1594">  ├── retry@0.12.0 extraneous</tspan>

<tspan x="10" y="1610">  ├── rimraf@2.6.2 extraneous</tspan>

<tspan x="10" y="1626">  ├── safe-buffer@5.1.2 extraneous</tspan>

<tspan x="10" y="1642">  ├── semver@5.5.0 extraneous</tspan>

<tspan x="10" y="1658">  ├── sha@2.0.1 extraneous</tspan>

<tspan x="10" y="1674">  ├── slide@1.1.6 extraneous</tspan>

<tspan x="10" y="1690">  ├── sorted-object@2.0.1 extraneous</tspan>

<tspan x="10" y="1706">  ├── sorted-union-stream@2.1.3 extraneous</tspan>

<tspan x="10" y="1722">  ├── ssri@6.0.0 extraneous</tspan>

<tspan x="10" y="1738">  ├── strip-ansi@4.0.0 extraneous</tspan>

<tspan x="10" y="1754">  ├── tar@4.4.1 extraneous</tspan>

<tspan x="10" y="1770">  ├── text-table@0.2.0 extraneous</tspan>

<tspan x="10" y="1786">  ├── tiny-relative-date@1.3.0 extraneous</tspan>

<tspan x="10" y="1802">  ├── uid-number@0.0.6 extraneous</tspan>

<tspan x="10" y="1818">  ├── umask@1.1.0 extraneous</tspan>

<tspan x="10" y="1834">  ├── unique-filename@1.1.0 extraneous</tspan>

<tspan x="10" y="1850">  ├── unpipe@1.0.0 extraneous</tspan>

<tspan x="10" y="1866">  ├── update-notifier@2.5.0 extraneous</tspan>

<tspan x="10" y="1882">  ├── uuid@3.2.1 extraneous</tspan>

<tspan x="10" y="1898">  ├── validate-npm-package-license@3.0.3 extraneous</tspan>

<tspan x="10" y="1914">  ├── validate-npm-package-name@3.0.0 extraneous</tspan>

<tspan x="10" y="1930">  ├── which@1.3.0 extraneous</tspan>

<tspan x="10" y="1946">  ├── worker-farm@1.6.0 extraneous</tspan>

<tspan x="10" y="1962">  ├── wrappy@1.0.2 extraneous</tspan>

<tspan x="10" y="1978">  └── write-file-atomic@2.3.0 extraneous</tspan>

</text>
</svg>
