<svg height="1470" width="720" xmlns="http://www.w3.org/2000/svg">
<rect height="1470" fill="#555" width="720"></rect>
<text fill="#7f7" font-family="Courier New" font-size="12" xml:space="preserve">
<tspan x="10" y="26"></tspan>
<tspan x="10" y="42">&gt; npmdoc-npm@0.0.9 test /home/travis/build/npmdoc/node-npmdoc-npm</tspan>
<tspan x="10" y="58">&gt; (set -e; export PORT=$(utility2 shServerPortRandom); utility2 test test.js)</tspan>
<tspan x="10" y="74"></tspan>
<tspan x="10" y="90"></tspan>
<tspan x="10" y="106">[MODE_BUILD=npmTest] - 2017-04-11T05:17:14Z - npm-testing /home/travis/build/npmdoc/node-npmdoc-\</tspan>
<tspan x="10" y="122">npm</tspan>
<tspan x="10" y="138"></tspan>
<tspan x="10" y="154">merging file:///home/travis/build/npmdoc/node-npmdoc-npm/tmp/build/test-report.json to test-repo\</tspan>
<tspan x="10" y="170">rt</tspan>
<tspan x="10" y="186">&gt; server listening on http-port 38056</tspan>
<tspan x="10" y="202">created apidoc file:///home/travis/build/npmdoc/node-npmdoc-npm/tmp/build/apidoc.html</tspan>
<tspan x="10" y="218"></tspan>
<tspan x="10" y="234"></tspan>
<tspan x="10" y="250">browserTest - created electron entry-page /home/travis/build/npmdoc/node-npmdoc-npm/tmp/electron\</tspan>
<tspan x="10" y="266">.15b5b71cf220.0853eae8314b2.html</tspan>
<tspan x="10" y="282"></tspan>
<tspan x="10" y="298">[node test-case 1 of 6 passed] - testCase_buildLib_default</tspan>
<tspan x="10" y="314">[node test-case 2 of 6 passed] - testCase_buildReadme_default</tspan>
<tspan x="10" y="330">[node test-case 3 of 6 passed] - testCase_buildTest_default</tspan>
<tspan x="10" y="346"></tspan>
<tspan x="10" y="362">browserTest - created electron entry-page /home/travis/build/npmdoc/node-npmdoc-npm/tmp/electron\</tspan>
<tspan x="10" y="378">.15b5b71cf6e0.cd51839330a19.html</tspan>
<tspan x="10" y="394"></tspan>
<tspan x="10" y="410">Xlib:  extension "RANDR" missing on display ":99.0".</tspan>
<tspan x="10" y="426">Xlib:  extension "RANDR" missing on display ":99.0".</tspan>
<tspan x="10" y="442">merging file:///home/travis/build/npmdoc/node-npmdoc-npm/tmp/build/test-report.json to test-repo\</tspan>
<tspan x="10" y="458">rt</tspan>
<tspan x="10" y="474">Xlib:  extension "RANDR" missing on display ":99.0".</tspan>
<tspan x="10" y="490">[4800:0411/051717:WARNING:audio_manager.cc(314)] Multiple instances of AudioManager detected</tspan>
<tspan x="10" y="506">[4800:0411/051717:WARNING:audio_manager.cc(275)] Multiple instances of AudioManager detected</tspan>
<tspan x="10" y="522">[4822:0411/051718:ERROR:sandbox_linux.cc(343)] InitializeSandbox() called with multiple threads \</tspan>
<tspan x="10" y="538">in process gpu-process. </tspan>
<tspan x="10" y="554">[4800:0411/051718:ERROR:browser_gpu_channel_host_factory.cc(131)] Failed to create channel.</tspan>
<tspan x="10" y="570">merging file:///home/travis/build/npmdoc/node-npmdoc-npm/tmp/build/test-report.json to test-repo\</tspan>
<tspan x="10" y="586">rt</tspan>
<tspan x="10" y="602">Xlib:  extension "RANDR" missing on display ":99.0".</tspan>
<tspan x="10" y="618">[4806:0411/051718:WARNING:audio_manager.cc(314)] Multiple instances of AudioManager detected</tspan>
<tspan x="10" y="634">[4806:0411/051718:WARNING:audio_manager.cc(275)] Multiple instances of AudioManager detected</tspan>
<tspan x="10" y="650">[4855:0411/051718:ERROR:sandbox_linux.cc(343)] InitializeSandbox() called with multiple threads \</tspan>
<tspan x="10" y="666">in process gpu-process. </tspan>
<tspan x="10" y="682"></tspan>
<tspan x="10" y="698">browserTest - opened url /home/travis/build/npmdoc/node-npmdoc-npm/tmp/build/apidoc.html</tspan>
<tspan x="10" y="714"></tspan>
<tspan x="10" y="730"></tspan>
<tspan x="10" y="746">browserTest - opened url http://127.0.0.1:38056?modeTest=1</tspan>
<tspan x="10" y="762"></tspan>
<tspan x="10" y="778">&gt; server listening on http-port 57047</tspan>
<tspan x="10" y="794">[node test-case 4 of 6 passed] - testCase_buildApp_default</tspan>
<tspan x="10" y="810"></tspan>
<tspan x="10" y="826">browserTest - created screenCapture file:///home/travis/build/npmdoc/node-npmdoc-npm/tmp/build/s\</tspan>
<tspan x="10" y="842">creenCapture.npmTest.browser.%2Fhome%2Ftravis%2Fbuild%2Fnpmdoc%2Fnode-npmdoc-npm%2Ftmp%2Fbuild%2\</tspan>
<tspan x="10" y="858">Fapidoc.html.png</tspan>
<tspan x="10" y="874"></tspan>
<tspan x="10" y="890">browserTest - created screenCapture file:///home/travis/build/npmdoc/node-npmdoc-npm/tmp/build/s\</tspan>
<tspan x="10" y="906">creenCapture.npmTest.browser.%2Fhome%2Ftravis%2Fbuild%2Fnpmdoc%2Fnode-npmdoc-npm%2Ftmp%2Fbuild%2\</tspan>
<tspan x="10" y="922">Fapidoc.html.html</tspan>
<tspan x="10" y="938"></tspan>
<tspan x="10" y="954">browserTest - exit-code 0 - /home/travis/build/npmdoc/node-npmdoc-npm/tmp/build/apidoc.html</tspan>
<tspan x="10" y="970"></tspan>
<tspan x="10" y="986">[node test-case 5 of 6 passed] - testCase_buildApidoc_default</tspan>
<tspan x="10" y="1002"></tspan>
<tspan x="10" y="1018">browserTest - created screenCapture file:///home/travis/build/npmdoc/node-npmdoc-npm/tmp/build/s\</tspan>
<tspan x="10" y="1034">creenCapture.npmTest.browser.%2F.png</tspan>
<tspan x="10" y="1050"></tspan>
<tspan x="10" y="1066">browserTest - created screenCapture file:///home/travis/build/npmdoc/node-npmdoc-npm/tmp/build/s\</tspan>
<tspan x="10" y="1082">creenCapture.npmTest.browser.%2F.html</tspan>
<tspan x="10" y="1098"></tspan>
<tspan x="10" y="1114">browserTest - exit-code 0 - http://127.0.0.1:38056?modeTest=1</tspan>
<tspan x="10" y="1130"></tspan>
<tspan x="10" y="1146"></tspan>
<tspan x="10" y="1162">browserTest - merging test-report from /home/travis/build/npmdoc/node-npmdoc-npm/tmp/test-report\</tspan>
<tspan x="10" y="1178">.npmTest.browser.%2F.json</tspan>
<tspan x="10" y="1194"></tspan>
<tspan x="10" y="1210">[node test-case 6 of 6 passed] - testCase_webpage_default</tspan>
<tspan x="10" y="1226">merging file:///home/travis/build/npmdoc/node-npmdoc-npm/tmp/build/test-report.json to test-repo\</tspan>
<tspan x="10" y="1242">rt</tspan>
<tspan x="10" y="1258"></tspan>
<tspan x="10" y="1274">-------------------------------------------------------</tspan>
<tspan x="10" y="1290">| test-report - buildCustomOrg - node - linux v6.10.2 - 2017-04-11T05:16:54.489Z</tspan>
<tspan x="10" y="1306">|   38251 ms            0 failed        6 passed      |</tspan>
<tspan x="10" y="1322">-------------------------------------------------------</tspan>
<tspan x="10" y="1338"></tspan>
<tspan x="10" y="1354">created test-report file:///home/travis/build/npmdoc/node-npmdoc-npm/tmp/build/test-report.html</tspan>
<tspan x="10" y="1370"></tspan>
<tspan x="10" y="1386"></tspan>
<tspan x="10" y="1402">npmTest - 0 failed tests</tspan>
<tspan x="10" y="1418"></tspan>
<tspan x="10" y="1434"></tspan>
<tspan x="10" y="1450">[MODE_BUILD=npmTest] - 2017-04-11T05:17:35Z - EXIT_CODE - 0</tspan>
</text>
</svg>
