<svg height="1838" width="720" xmlns="http://www.w3.org/2000/svg">
<rect height="1838" fill="#555" width="720"></rect>
<text fill="#7f7" font-family="Courier New" font-size="12" xml:space="preserve">
<tspan x="10" y="26">npm install - 40 megabytes</tspan>

<tspan x="10" y="42"></tspan>

<tspan x="10" y="58">node_modules</tspan>

<tspan x="10" y="74">└─┬ npm@5.8.0</tspan>

<tspan x="10" y="90">  ├── abbrev@1.1.1 extraneous</tspan>

<tspan x="10" y="106">  ├── ansi-regex@3.0.0 extraneous</tspan>

<tspan x="10" y="122">  ├── ansicolors@0.3.2 extraneous</tspan>

<tspan x="10" y="138">  ├── ansistyles@0.1.3 extraneous</tspan>

<tspan x="10" y="154">  ├── aproba@1.2.0 extraneous</tspan>

<tspan x="10" y="170">  ├── archy@1.0.0 extraneous</tspan>

<tspan x="10" y="186">  ├── bin-links@1.1.0 extraneous</tspan>

<tspan x="10" y="202">  ├── bluebird@3.5.1 extraneous</tspan>

<tspan x="10" y="218">  ├── cacache@10.0.4 extraneous</tspan>

<tspan x="10" y="234">  ├── call-limit@1.1.0 extraneous</tspan>

<tspan x="10" y="250">  ├── chownr@1.0.1 extraneous</tspan>

<tspan x="10" y="266">  ├── cli-table2@0.2.0 extraneous</tspan>

<tspan x="10" y="282">  ├── cmd-shim@2.0.2 extraneous</tspan>

<tspan x="10" y="298">  ├── columnify@1.5.4 extraneous</tspan>

<tspan x="10" y="314">  ├── config-chain@1.1.11 extraneous</tspan>

<tspan x="10" y="330">  ├── debuglog@1.0.1 extraneous</tspan>

<tspan x="10" y="346">  ├── detect-indent@5.0.0 extraneous</tspan>

<tspan x="10" y="362">  ├── detect-newline@2.1.0 extraneous</tspan>

<tspan x="10" y="378">  ├── dezalgo@1.0.3 extraneous</tspan>

<tspan x="10" y="394">  ├── editor@1.0.0 extraneous</tspan>

<tspan x="10" y="410">  ├── find-npm-prefix@1.0.2 extraneous</tspan>

<tspan x="10" y="426">  ├── fs-vacuum@1.2.10 extraneous</tspan>

<tspan x="10" y="442">  ├── fs-write-stream-atomic@1.0.10 extraneous</tspan>

<tspan x="10" y="458">  ├── gentle-fs@2.0.1 extraneous</tspan>

<tspan x="10" y="474">  ├── glob@7.1.2 extraneous</tspan>

<tspan x="10" y="490">  ├── graceful-fs@4.1.11 extraneous</tspan>

<tspan x="10" y="506">  ├── has-unicode@2.0.1 extraneous</tspan>

<tspan x="10" y="522">  ├── hosted-git-info@2.6.0 extraneous</tspan>

<tspan x="10" y="538">  ├── iferr@0.1.5 extraneous</tspan>

<tspan x="10" y="554">  ├── imurmurhash@0.1.4 extraneous</tspan>

<tspan x="10" y="570">  ├── inflight@1.0.6 extraneous</tspan>

<tspan x="10" y="586">  ├── inherits@2.0.3 extraneous</tspan>

<tspan x="10" y="602">  ├── ini@1.3.5 extraneous</tspan>

<tspan x="10" y="618">  ├── init-package-json@1.10.3 extraneous</tspan>

<tspan x="10" y="634">  ├── is-cidr@1.0.0 extraneous</tspan>

<tspan x="10" y="650">  ├── json-parse-better-errors@1.0.1 extraneous</tspan>

<tspan x="10" y="666">  ├── JSONStream@1.3.2 extraneous</tspan>

<tspan x="10" y="682">  ├── lazy-property@1.0.0 extraneous</tspan>

<tspan x="10" y="698">  ├── libcipm@1.6.0 extraneous</tspan>

<tspan x="10" y="714">  ├── libnpx@10.0.1 extraneous</tspan>

<tspan x="10" y="730">  ├── lockfile@1.0.3 extraneous</tspan>

<tspan x="10" y="746">  ├── lodash._baseindexof@3.1.0 extraneous</tspan>

<tspan x="10" y="762">  ├── lodash._baseuniq@4.6.0 extraneous</tspan>

<tspan x="10" y="778">  ├── lodash._bindcallback@3.0.1 extraneous</tspan>

<tspan x="10" y="794">  ├── lodash._cacheindexof@3.0.2 extraneous</tspan>

<tspan x="10" y="810">  ├── lodash._createcache@3.1.2 extraneous</tspan>

<tspan x="10" y="826">  ├── lodash._getnative@3.9.1 extraneous</tspan>

<tspan x="10" y="842">  ├── lodash.clonedeep@4.5.0 extraneous</tspan>

<tspan x="10" y="858">  ├── lodash.restparam@3.6.1 extraneous</tspan>

<tspan x="10" y="874">  ├── lodash.union@4.6.0 extraneous</tspan>

<tspan x="10" y="890">  ├── lodash.uniq@4.5.0 extraneous</tspan>

<tspan x="10" y="906">  ├── lodash.without@4.4.0 extraneous</tspan>

<tspan x="10" y="922">  ├── lru-cache@4.1.1 extraneous</tspan>

<tspan x="10" y="938">  ├── meant@1.0.1 extraneous</tspan>

<tspan x="10" y="954">  ├── mississippi@3.0.0 extraneous</tspan>

<tspan x="10" y="970">  ├── mkdirp@0.5.1 extraneous</tspan>

<tspan x="10" y="986">  ├── move-concurrently@1.0.1 extraneous</tspan>

<tspan x="10" y="1002">  ├── nopt@4.0.1 extraneous</tspan>

<tspan x="10" y="1018">  ├── normalize-package-data@2.4.0 extraneous</tspan>

<tspan x="10" y="1034">  ├── npm-cache-filename@1.0.2 extraneous</tspan>

<tspan x="10" y="1050">  ├── npm-install-checks@3.0.0 extraneous</tspan>

<tspan x="10" y="1066">  ├── npm-lifecycle@2.0.1 extraneous</tspan>

<tspan x="10" y="1082">  ├── npm-package-arg@6.0.0 extraneous</tspan>

<tspan x="10" y="1098">  ├── npm-packlist@1.1.10 extraneous</tspan>

<tspan x="10" y="1114">  ├── npm-profile@3.0.1 extraneous</tspan>

<tspan x="10" y="1130">  ├── npm-registry-client@8.5.1 extraneous</tspan>

<tspan x="10" y="1146">  ├── npm-user-validate@1.0.0 extraneous</tspan>

<tspan x="10" y="1162">  ├── npmlog@4.1.2 extraneous</tspan>

<tspan x="10" y="1178">  ├── once@1.4.0 extraneous</tspan>

<tspan x="10" y="1194">  ├── opener@1.4.3 extraneous</tspan>

<tspan x="10" y="1210">  ├── osenv@0.1.5 extraneous</tspan>

<tspan x="10" y="1226">  ├── pacote@7.6.1 extraneous</tspan>

<tspan x="10" y="1242">  ├── path-is-inside@1.0.2 extraneous</tspan>

<tspan x="10" y="1258">  ├── promise-inflight@1.0.1 extraneous</tspan>

<tspan x="10" y="1274">  ├── qrcode-terminal@0.11.0 extraneous</tspan>

<tspan x="10" y="1290">  ├── query-string@5.1.0 extraneous</tspan>

<tspan x="10" y="1306">  ├── qw@1.0.1 extraneous</tspan>

<tspan x="10" y="1322">  ├── read@1.0.7 extraneous</tspan>

<tspan x="10" y="1338">  ├── read-cmd-shim@1.0.1 extraneous</tspan>

<tspan x="10" y="1354">  ├── read-installed@4.0.3 extraneous</tspan>

<tspan x="10" y="1370">  ├── read-package-json@2.0.13 extraneous</tspan>

<tspan x="10" y="1386">  ├── read-package-tree@5.1.6 extraneous</tspan>

<tspan x="10" y="1402">  ├── readable-stream@2.3.5 extraneous</tspan>

<tspan x="10" y="1418">  ├── readdir-scoped-modules@1.0.2 extraneous</tspan>

<tspan x="10" y="1434">  ├── request@2.83.0 extraneous</tspan>

<tspan x="10" y="1450">  ├── retry@0.10.1 extraneous</tspan>

<tspan x="10" y="1466">  ├── rimraf@2.6.2 extraneous</tspan>

<tspan x="10" y="1482">  ├── safe-buffer@5.1.1 extraneous</tspan>

<tspan x="10" y="1498">  ├── semver@5.5.0 extraneous</tspan>

<tspan x="10" y="1514">  ├── sha@2.0.1 extraneous</tspan>

<tspan x="10" y="1530">  ├── slide@1.1.6 extraneous</tspan>

<tspan x="10" y="1546">  ├── sorted-object@2.0.1 extraneous</tspan>

<tspan x="10" y="1562">  ├── sorted-union-stream@2.1.3 extraneous</tspan>

<tspan x="10" y="1578">  ├── ssri@5.2.4 extraneous</tspan>

<tspan x="10" y="1594">  ├── strip-ansi@4.0.0 extraneous</tspan>

<tspan x="10" y="1610">  ├── tar@4.4.0 extraneous</tspan>

<tspan x="10" y="1626">  ├── text-table@0.2.0 extraneous</tspan>

<tspan x="10" y="1642">  ├── uid-number@0.0.6 extraneous</tspan>

<tspan x="10" y="1658">  ├── umask@1.1.0 extraneous</tspan>

<tspan x="10" y="1674">  ├── unique-filename@1.1.0 extraneous</tspan>

<tspan x="10" y="1690">  ├── unpipe@1.0.0 extraneous</tspan>

<tspan x="10" y="1706">  ├── update-notifier@2.3.0 extraneous</tspan>

<tspan x="10" y="1722">  ├── uuid@3.2.1 extraneous</tspan>

<tspan x="10" y="1738">  ├── validate-npm-package-license@3.0.1 extraneous</tspan>

<tspan x="10" y="1754">  ├── validate-npm-package-name@3.0.0 extraneous</tspan>

<tspan x="10" y="1770">  ├── which@1.3.0 extraneous</tspan>

<tspan x="10" y="1786">  ├── worker-farm@1.5.4 extraneous</tspan>

<tspan x="10" y="1802">  ├── wrappy@1.0.2 extraneous</tspan>

<tspan x="10" y="1818">  └── write-file-atomic@2.3.0 extraneous</tspan>

</text>
</svg>
